<?xml version="1.0" encoding="UTF-8" standalone="no"?>
<!-- Created with Inkscape (http://www.inkscape.org/) -->

<svg
   xmlns:dc="http://purl.org/dc/elements/1.1/"
   xmlns:cc="http://creativecommons.org/ns#"
   xmlns:rdf="http://www.w3.org/1999/02/22-rdf-syntax-ns#"
   xmlns:svg="http://www.w3.org/2000/svg"
   xmlns="http://www.w3.org/2000/svg"
   xmlns:sodipodi="http://sodipodi.sourceforge.net/DTD/sodipodi-0.dtd"
   xmlns:inkscape="http://www.inkscape.org/namespaces/inkscape"
   width="264.58334mm"
   height="221.23405mm"
   viewBox="0 0 264.58334 221.23405"
   version="1.1"
   id="svg836"
   inkscape:version="0.92.4 (5da689c313, 2019-01-14)"
   sodipodi:docname="McDonald's 1993.svg">
  <defs
     id="defs830" />
  <sodipodi:namedview
     id="base"
     pagecolor="#ffffff"
     bordercolor="#666666"
     borderopacity="1.0"
     inkscape:pageopacity="0.0"
     inkscape:pageshadow="2"
     inkscape:zoom="1"
     inkscape:cx="719.60718"
     inkscape:cy="426.43722"
     inkscape:document-units="mm"
     inkscape:current-layer="layer1"
     showgrid="false"
     fit-margin-top="0"
     fit-margin-left="0"
     fit-margin-right="0"
     fit-margin-bottom="0"
     inkscape:window-width="1920"
     inkscape:window-height="1001"
     inkscape:window-x="-9"
     inkscape:window-y="-9"
     inkscape:window-maximized="1" />
  <metadata
     id="metadata833">
    <rdf:RDF>
      <cc:Work
         rdf:about="">
        <dc:format>image/svg+xml</dc:format>
        <dc:type
           rdf:resource="http://purl.org/dc/dcmitype/StillImage" />
        <dc:title></dc:title>
      </cc:Work>
    </rdf:RDF>
  </metadata>
  <g
     inkscape:label="Layer 1"
     inkscape:groupmode="layer"
     id="layer1"
     transform="translate(289.39105,-18.864054)">
    <g
       id="g1391"
       transform="matrix(1.2980608,0,0,1.2980608,86.256111,-71.563817)">
      <path
         style="clip-rule:evenodd;fill:#000000;fill-opacity:1;fill-rule:evenodd;stroke-width:4.33834791"
         inkscape:connector-curvature="0"
         d="m -283.06459,239.76335 c 0.25406,-45.63077 25.16383,-160.924379 58.71602,-160.756385 29.57044,0.08396 40.92564,79.495595 40.92564,79.495595 0.50686,0.42 11.01384,-79.3276 39.99141,-79.159606 38.21019,0.167998 58.03721,113.192406 57.86912,160.755136 l -19.82701,-0.0829 c 0.42223,-95.63072 -23.30064,-149.075767 -37.53664,-149.159753 -11.69129,0 -27.70582,46.554733 -28.128,138.821693 l -22.87845,0.33877 c 0.42491,-92.77352 -18.21653,-139.412255 -30.41732,-139.49625 -12.20083,-0.08395 -36.43305,56.5542 -36.77182,148.90774 z"
         id="path808" />
      <path
         style="clip-rule:evenodd;fill:#fbb20b;fill-opacity:1;fill-rule:evenodd;stroke-width:4.45385695"
         inkscape:connector-curvature="0"
         d="m -289.39104,232.13944 c 0.17672,-46.17858 25.01744,-162.560421 58.34368,-162.475576 29.34989,0.169698 40.66573,80.304436 40.66573,80.304436 0.44057,0.50912 10.95967,-80.049875 39.77944,-79.965031 37.92237,0.169698 57.63671,114.344121 57.37165,162.475611 l -19.71161,-0.0838 c 0.44057,-96.68852 -23.07351,-150.677353 -37.2196,-150.677353 -11.66656,-0.08485 -27.49157,46.942273 -27.93478,140.149323 l -22.71729,0.42527 c 0.35379,-93.71746 -18.12381,-140.915586 -30.23354,-140.915586 -12.19946,-0.08355 -36.15655,57.129626 -36.59836,150.336636 z"
         id="path810" />
    </g>
  </g>
</svg>
